<svg xmlns="http://www.w3.org/2000/svg" viewBox="0 0 384 288"><g id="Layer_2" data-name="Layer 2"><g id="Layer_1-2" data-name="Layer 1"><path d="M144.06,0h15.73a5,5,0,0,1,.77,1.29,20.76,20.76,0,0,1,.28,5.22q0,137.49,0,275c0,2.2.55,4.54-1,6.5H144.06c-1.47-1.71-1-3.78-1-5.73q0-33.09,0-66.17a28.79,28.79,0,0,0-.15-4.83,1,1,0,0,0-1.25-.38c-12.4,7.92-24.53,16.23-36.76,24.38Q66.28,261,27.74,286.75c-.85.58-2,.48-2.8,1.25H1c-.32-.82.13-1.4.63-2q69.06-46.31,138.27-92.37a1.58,1.58,0,0,0,.45-.55c-11.24-.39-22.44-.06-33.64-.17-2.05,0-3.55,1-5.09,2.06-18.74,12.78-37.29,25.83-56,38.7-14.78,10.18-29.34,20.67-44.34,30.52A1.08,1.08,0,0,1,.22,264V247.5c3.48-3.65,7.89-6.07,12-8.93Q43.94,216.16,75.83,194c.23-.28.61-.54,0-.88-23.33-.06-46.61,0-69.9,0-1.95,0-4,.43-5.73-1V176.25c1.83-1.53,4-1,6.11-1q65.4,0,130.8-.05c1.8,0,3.77.57,5.35-.89a6.84,6.84,0,0,0,.51-3.65q0-26.66,0-53.32c0-1.23.16-2.5-.56-3.62-1.63-1.4-3.59-.84-5.41-.84q-65.34-.06-130.68,0c-2.07,0-4.28.5-6.12-1V96C1.93,94.53,4,95,6,95c23.32,0,46.63.05,69.91-.07.47-.36.14-.64-.15-.92C51.56,77.05,27.37,60.21,3.3,43.19A16.8,16.8,0,0,1,.22,40.5V24a1.06,1.06,0,0,1,1.06-.22C9.64,29,17.57,34.85,25.67,40.45Q56.45,61.74,87.18,83.1c4.92,3.41,9.75,7,14.81,10.17,1.25.79,2.42,1.76,4.05,1.74,11.44-.11,22.88.41,34.28-.27a3,3,0,0,0-.9-.79Q70.45,48,1.6,2A1.82,1.82,0,0,1,1,0h24c.78.77,1.95.67,2.8,1.26Q83.42,38.45,139.12,75.6a22.18,22.18,0,0,0,2.54,1.56.92.92,0,0,0,1.22-.47c.29-23.67,0-47.32.14-71C143,3.78,142.59,1.7,144.06,0Z" fill="#fefefe"/><path d="M359.06,0h24c.32.82-.13,1.4-.63,2q-69.06,46.3-138.27,92.37a1.58,1.58,0,0,0-.45.55c11.37.38,22.7.08,34,.15,1.88,0,3.29-.94,4.73-2,32.87-22.83,65.81-45.54,98.65-68.41a7.2,7.2,0,0,1,1.63-.9,1.08,1.08,0,0,1,1.06.23V40.5c-3.48,3.65-7.89,6.07-11.95,8.93q-31.77,22.41-63.66,44.62c-.23.28-.61.54,0,.88,23.33.06,46.61,0,69.9,0,1.95,0,4-.43,5.73,1v15.75c-1.83,1.53-4,1-6.11,1q-65.4,0-130.8,0c-1.8,0-3.77-.57-5.35.89a6.84,6.84,0,0,0-.51,3.65q0,26.66,0,53.32c0,1.23-.16,2.5.56,3.62,1.63,1.4,3.59.84,5.41.84q65.34.06,130.68.05c2.07,0,4.28-.5,6.12,1V192c-1.71,1.47-3.79,1-5.74,1-23.32.05-46.63,0-69.91.07-.47.36-.14.64.15.92q36.3,25.29,72.42,50.78a16.8,16.8,0,0,1,3.08,2.69V264a1.06,1.06,0,0,1-1.06.22C372,257.15,361.51,249.74,351,242.41q-27.84-19.29-55.69-38.56c-4-2.77-8-5.53-12-8.37a12.4,12.4,0,0,0-7.94-2.57c-10.58.25-21.17-.25-31.71.28a2.58,2.58,0,0,0,.56.58q68.07,45.36,136,90.77a23.09,23.09,0,0,1,2.16,1.5,1.82,1.82,0,0,1,.62,2h-24c-.65-.64-1.57-.68-2.34-1.05-36.44-24.08-72.66-48.5-109-72.68-1.76-1.17-3.48-2.43-5.34-3.43a.92.92,0,0,0-1.22.47c-.29,23.67,0,47.32-.14,71,0,2,.43,4-1,5.73H224.21c-1.59-2-1-4.3-1-6.5q0-100,0-200.07,0-37.85,0-75.68c0-2-.42-4,1-5.75h15.73c1.47,1.71,1,3.78,1,5.73q0,33.09,0,66.17a28.79,28.79,0,0,0,.15,4.83,1,1,0,0,0,1.25.38c12.4-7.92,24.53-16.23,36.76-24.38Q317.72,27,356.26,1.25C357.11.67,358.28.77,359.06,0Z" fill="#fefefe"/><path d="M.22,192H79.05a1.74,1.74,0,0,1-1.61,1.62,19.76,19.76,0,0,0-3.69-.52c-23.64,0-47.28,0-70.23,0-1.19.18-.67,1-.75.48,0,0,0,0,.07,0,1-.84,2.09-.39,3.12-.39q33.28,0,66.56,0c1.39,0,3.07-.66,4,1.07C67.63,200.58,58.72,207,49.75,213.3Q26.62,229.56,3.44,245.74c-1,.7-1.84,1.74-3.22,1.76Z" fill="#0053b4"/><path d="M77.44,94.38c.77.1,1.26.54,2,1.62H.22V40.5c1.12-.06,1.81.77,2.61,1.33Q39,67.16,75.2,92.55a14.46,14.46,0,0,1,1.38,1.23c-.63,1.31-1.84,1.08-2.93,1.08q-34.77,0-69.55,0c-.46,0-1.08.31-1.18-.06.43.5,1.31.07,2,.07q33.64,0,67.3,0A18.43,18.43,0,0,0,77.44,94.38Z" fill="#0053b4"/><path d="M383.78,247.5c-1,0-1.6-.63-2.3-1.12q-36.35-25.45-72.66-50.93a17.83,17.83,0,0,1-1.38-1.23c.62-1.32,1.84-1.08,2.93-1.08h69.54c.48,0,1.06-.21,1.15.05-.4-.48-1.28-.05-2-.05q-33.65,0-67.3,0a18.8,18.8,0,0,0-5.18.51c-.51-.32-1.4-.57-1.46-1-.15-1,.78-.63,1.29-.65,1.87,0,3.74,0,5.61,0h71.77Z" fill="#0053b4"/><path d="M383.78,96q-38.13,0-76.26,0c-.82,0-2,.62-2.41-.67,0-.12.95-.6,1.46-.91a24.24,24.24,0,0,0,3.31.5c23.77,0,47.54,0,70.59,0,1.21-.18.69-1,.77-.48,0,0,0,0-.07,0-.95.82-2.09.39-3.12.39q-33.29,0-66.56,0c-1.38,0-3.06.68-4.05-1q18.31-13,36.64-25.93t36.79-25.79c.9-.63,1.67-1.55,2.91-1.56Z" fill="#0053b4"/><path d="M224.21,0c-.05,1.12-.15,2.24-.15,3.35q0,140.66,0,281.3c0,1.11.1,2.23.15,3.35h-.75a4.9,4.9,0,0,1-.77-1.28,28,28,0,0,1-.28-6.34q0-136,0-272.08c0-1.93.63-4.05-1.09-5.67-1.61-1-3.4-.67-5.12-.67q-24.25,0-48.51,0a38.6,38.6,0,0,1-5.59-.17,5.06,5.06,0,0,1-1.38-.5l-.53-.51L159.79,0Z" fill="#da1135"/><path d="M383.78,176.25c-1.37-.05-2.73-.16-4.1-.16q-67.85,0-135.69,0c-1.27,0-2.73.68-3.84-.58a2.94,2.94,0,0,1,1.24-.78,29,29,0,0,1,6-.24q64.29,0,128.58,0c1.8,0,3.79.56,5.25-1.12.8-1.38.64-2.89.64-4.37q0-25,0-50c0-1.48.17-3-.71-4.33-1.52-1.63-3.51-1.06-5.32-1.06q-64.21,0-128.43,0a29.1,29.1,0,0,1-6-.24,2.79,2.79,0,0,1-1.24-.78c1.11-1.26,2.57-.58,3.84-.58q67.85-.06,135.69,0c1.37,0,2.73-.11,4.1-.16Z" fill="#da1135"/><path d="M.22,111.75c1.37,0,2.73.16,4.1.16q67.85,0,135.69,0c1.27,0,2.73-.68,3.84.58a2.94,2.94,0,0,1-1.24.78,29,29,0,0,1-6,.24q-64.29,0-128.58,0c-1.8,0-3.79-.56-5.25,1.12-.8,1.38-.64,2.89-.64,4.37q0,25,0,50c0,1.48-.17,3,.71,4.33,1.52,1.63,3.51,1.06,5.32,1.06q64.22,0,128.43,0a29.1,29.1,0,0,1,6,.24,2.79,2.79,0,0,1,1.24.78c-1.11,1.26-2.57.58-3.84.58q-67.84.06-135.69,0c-1.37,0-2.73.11-4.1.16Z" fill="#da1135"/><path d="M223.34,287.13l.12.87H159.79c.05-1.49.15-3,.15-4.48q0-139,0-277.91c0-1.62.13-3.23.2-4.85l.51.11c1.48,2,.9,4.34.9,6.53q0,136.16.05,272.3c0,1.93-.63,4.05,1.09,5.66,1.62,1,3.41.68,5.13.68q24.33,0,48.66,0a22.28,22.28,0,0,1,5.59.32A3.63,3.63,0,0,1,223.34,287.13Z" fill="#da1135"/><path d="M359.06,0a2.69,2.69,0,0,1-2.15,1.69c-2.35.23-4.72.29-7.09.29q-50.51,0-101,0c-2,0-4-.31-5.88.6-1.63,1.34-1.15,3.2-1.15,4.88q0,32.67,0,65.35a49.46,49.46,0,0,1-.29,6c-.39.57-1,1-1.4.25a5.19,5.19,0,0,1-.16-2.21l0-76.81Z" fill="#115eb9"/><path d="M142.53,209.23c.39-.57,1-1,1.4-.25a5.19,5.19,0,0,1,.16,2.21l0,76.81H24.94a2.69,2.69,0,0,1,2.15-1.69c2.35-.23,4.72-.29,7.09-.29q50.51,0,101,0c2,0,4,.31,5.88-.6,1.63-1.34,1.15-3.2,1.15-4.88q0-32.67,0-65.35A49.46,49.46,0,0,1,142.53,209.23Z" fill="#115eb9"/><path d="M27.1,1.67A2.87,2.87,0,0,1,24.94,0H144.06q0,38.37,0,76.74c0,.65,1.37,3.14-1.48,2a42.43,42.43,0,0,1-.31-6q0-32.73,0-65.45c0-1.69.48-3.55-1.2-4.84-1.8-.77-3.69-.52-5.55-.53Q84.65,2,33.81,2A62.66,62.66,0,0,1,27.1,1.67Z" fill="#115eb9"/><path d="M357.52,286.63c.73.21,1.38.51,1.54,1.37H239.94q0-38.42,0-76.84c0-.66-1.34-3.23,1.54-1.95.5,6.1.21,12.21.23,18.32,0,17.71,0,35.41,0,53.12,0,1.69-.48,3.55,1.2,4.84,1.79.79,3.69.54,5.54.54q50.61,0,101.22,0A38.33,38.33,0,0,1,357.52,286.63Z" fill="#115eb9"/><path d="M383.78,24l-.65.25a3.58,3.58,0,0,1-1.2-3c0-6.61-.39-13.23.15-19.84L383,0c1.66.06.69,1.31.69,1.88C383.8,9.25,383.78,16.62,383.78,24Z" fill="#da1437"/><path d="M1,0,2,1.35c.47,6.61.18,13.22.12,19.84a3.6,3.6,0,0,1-1.19,3L.22,24c0-7.38,0-14.75.06-22.12C.28,1.31-.69.06,1,0Z" fill="#da1337"/><path d="M1.92,286.62,1,288c-1.66-.06-.69-1.31-.69-1.88C.2,278.75.22,271.38.22,264l.66-.22a3.6,3.6,0,0,1,1.19,3C2.11,273.41,2.45,280,1.92,286.62Z" fill="#da1437"/><path d="M383.13,263.75l.65.25c0,7.38,0,14.75-.06,22.12,0,.57,1,1.82-.69,1.88l-.93-1.39c-.58-6.6-.2-13.22-.17-19.83A3.61,3.61,0,0,1,383.13,263.75Z" fill="#da1437"/><path d="M142.56,287.25q-55.66,0-111.32,0c-1.41,0-3,.58-4.15-.92,8-5.45,16-10.93,24.1-16.33q44-29.37,88-58.7c.82-.55,1.72-1,2.58-1.45,1.37.75,1.19,2.06,1.19,3.3v72.32A3.05,3.05,0,0,1,142.56,287.25Z" fill="#0053b4"/><path d="M27.1,1.67C28.23.18,29.86.78,31.27.78Q86.91.72,142.56.75c.66,1.17.34,2.45.35,3.68q0,34.64,0,69.28c0,1.53.64,3.32-1.15,4.43-10.19-6.7-20.41-13.35-30.56-20.11Q70.45,30.89,29.76,3.68C28.84,3.06,28,2.34,27.1,1.67Z" fill="#0053b4"/><path d="M1.92,286.62c-1.4-1-.92-2.48-.93-3.78-.07-6.36-.08-12.71-.11-19.06q25-17.44,50-34.88,25.35-17.62,50.74-35.18a7.82,7.82,0,0,1,4.75-1.77c11.6.08,23.2,0,34.8,0,.58,0,1.16.11,1.8.17a2,2,0,0,1-1.78,1.46c-1.08-1-2.38-.48-3.57-.48q-15.67-.06-31.36,0c11.32,0,22.63,0,33.94,0a1.86,1.86,0,0,1,1,.46c-7.62,5.18-15.2,10.41-22.86,15.53Q61.6,247.07,4.81,284.94C3.88,285.55,2.88,286.06,1.92,286.62Z" fill="#d70027"/><path d="M.88,24.22c0-6.36,0-12.73.11-19.09C1,3.81.53,2.32,2,1.35,13.8,9.18,25.68,17,37.5,24.85q49.95,33.3,99.86,66.66c1,.69,2,1.49,2.95,2.24-.53,1.11-1.54,1.11-2.55,1.11q-15.33,0-30.64,0c-.37,0-.87.19-.88,0h5.47c8.22,0,16.44,0,24.66,0a14.28,14.28,0,0,0,4.78-.61,2.77,2.77,0,0,1,2,1.72h-6.78c-9.86,0-19.72,0-29.57,0a7.43,7.43,0,0,1-4.55-1.25Q52,59.83,1.69,25A7.23,7.23,0,0,1,.88,24.22Z" fill="#d70027"/><path d="M143.85,175.47a6.19,6.19,0,0,0-.62-.13,2.47,2.47,0,0,1-1.45-1.53,12.93,12.93,0,0,1-.4-4.06q0-25.75,0-51.5a13.32,13.32,0,0,1,.39-4.07,2.44,2.44,0,0,1,1.47-1.52,4.42,4.42,0,0,0,.61-.13q.1,25.11.2,50.22C144.06,167,143.92,171.23,143.85,175.47Z" fill="#d5001f"/><path d="M141.75,78.14c1-1.59.81-3.35.81-5.1V.75c1.15,1,.73,2.31.73,3.5q0,35.51,0,71c0,1.19.41,2.52-.74,3.49Z" fill="#004cb1"/><path d="M142.56,287.25V214.92c0-1.74.16-3.51-.83-5.09l.8-.6c1.17,1,.76,2.3.76,3.49q0,35.5,0,71C143.29,284.94,143.71,286.27,142.56,287.25Z" fill="#004cb1"/><path d="M77.44,94.38c-.79,1.14-2,.86-3.08.86q-35.73,0-71.47,0A7.55,7.55,0,0,1,1.61,95c1.41-.89,2.75-.46,4-.47q33.12,0,66.24,0c1.61,0,3.25.21,4.73-.72Z" fill="#004cb1"/><path d="M76.57,194.23c-1.47-.94-3.11-.73-4.73-.73H1.76c.83-1.2,1.82-.72,2.63-.72q34.62,0,69.23,0c1.3,0,2.78-.5,3.82.85Z" fill="#004cb1"/><path d="M141.15,94.29a2,2,0,0,1-1.91.94c-11.33,0-22.67,0-34-.73h13.12c5.87,0,11.74,0,17.6,0a7.72,7.72,0,0,0,4.36-.75Z" fill="#d5001f"/><path d="M357.52,286.63c-1.18,1.05-2.62.6-3.94.6q-56.07,0-112.14,0c-.66-1.18-.34-2.45-.35-3.68q0-34.67,0-69.34c0-1.55-.59-3.33,1.18-4.44,10.32,6.79,20.66,13.53,30.93,20.38q40.83,27.2,81.61,54.47C355.74,285.26,356.62,286,357.52,286.63Z" fill="#0053b4"/><path d="M241.44.75q55.67,0,111.32,0c1.41,0,3-.58,4.15.92-8,5.45-16,10.93-24.1,16.33q-44,29.37-88,58.7c-.82.55-1.72,1-2.58,1.45-1.37-.75-1.19-2.06-1.19-3.3V2.55A3.05,3.05,0,0,1,241.44.75Z" fill="#0053b4"/><path d="M383.13,263.75c0,6.36,0,12.71-.12,19.07,0,1.3.48,2.79-.91,3.79Q358.58,271,335.05,255.42q-44.51-29.67-89-59.39c-1.12-.75-2.18-1.62-3.27-2.43.61-.61,1.39-.46,2.12-.46q16.4,0,32.79,0-15.66,0-31.32,0c-1.19,0-2.49-.47-3.58.47l-1.76-1,.11-.6c5.93,0,11.86,0,17.79,0,7,0,14.41-1.4,20.8.56s11.45,7.3,17.09,11.2q42,29.07,83.95,58.16C381.61,262.48,382.35,263.14,383.13,263.75Z" fill="#d70027"/><path d="M382.08,1.38c1.4,1,.92,2.48.93,3.79.07,6.36.09,12.72.12,19.08q-20.4,14.24-40.79,28.47-29.8,20.72-59.63,41.41a10.13,10.13,0,0,1-6.22,1.92C265.77,96,255,96,244.31,96c-1.05,0-2.21.41-3.21-.38a1.92,1.92,0,0,1,1.7-1.23c1.08,1,2.38.48,3.57.48q15.67.06,31.36,0c-11.32,0-22.63,0-33.94,0a1.86,1.86,0,0,1-1-.46C250.42,89.2,258,84,265.66,78.85Q322.4,40.93,379.19,3.06C380.12,2.45,381.12,1.94,382.08,1.38Z" fill="#d70027"/><path d="M240.15,112.53a6.19,6.19,0,0,0,.62.13,2.47,2.47,0,0,1,1.45,1.53,12.93,12.93,0,0,1,.4,4.06q0,25.75,0,51.5a13.32,13.32,0,0,1-.39,4.07,2.44,2.44,0,0,1-1.47,1.52,4.42,4.42,0,0,0-.61.13q-.1-25.11-.2-50.22C239.94,121,240.08,116.77,240.15,112.53Z" fill="#d5001f"/><path d="M241.44.75V73.08c0,1.74-.16,3.51.83,5.09l-.8.6c-1.17-1-.76-2.3-.76-3.49q0-35.51,0-71C240.71,3.06,240.29,1.73,241.44.75Z" fill="#004cb1"/><path d="M242.28,209.79c-1,1.59-.84,3.35-.84,5.1v72.36c-1.23-1.11-.72-2.57-.72-3.88q0-35.16,0-70.31c0-1.3-.51-2.78.79-3.85Z" fill="#004cb1"/><path d="M307.44,93.78c1.47.94,3.12.72,4.73.72h70.08c-.84,1.19-1.83.72-2.64.72q-34.61,0-69.21,0c-1.31,0-2.79.5-3.83-.83Z" fill="#004cb1"/><path d="M306.57,193.61c.79-1.13,2-.85,3.08-.85h71.08c.48,0,.95.08,1.8.16-1.55,1-2.89.55-4.14.56q-33.11,0-66.22,0c-1.61,0-3.26-.22-4.73.72Z" fill="#004cb1"/><path d="M222.71,287.25H161.29c-.69-1.3-.35-2.7-.35-4.05q0-139.2,0-278.4c0-1.35-.34-2.75.35-4h61.42c.69,1.3.35,2.7.35,4.05q0,139.2,0,278.4C223.06,284.55,223.4,286,222.71,287.25Z" fill="#d70027"/><path d="M222.71,287.25V.75c1,.88.69,2.08.69,3.16q0,141.24,0,282.47c0,.25,0,.5,0,.75A1.68,1.68,0,0,1,222.71,287.25Z" fill="#d40016"/><path d="M161.29.75v286.5c-1-.88-.69-2.08-.69-3.16q0-141.24,0-282.48c0-.25,0-.5.06-.74A1.63,1.63,0,0,1,161.29.75Z" fill="#d40016"/><path d="M241.45,174.74V113.26c1.16-.68,2.44-.36,3.66-.36q67.13,0,134.25,0c1.22,0,2.5-.31,3.66.35v61.5c-1.16.66-2.44.35-3.66.35q-67.12,0-134.25,0C243.89,175.1,242.61,175.42,241.45,174.74Z" fill="#d70027"/><path d="M383,113.25H241.45l-.68-.6q32.52,0,65.06-.1,36.46,0,72.92,0C380.18,112.58,381.76,112,383,113.25Z" fill="#d40016"/><path d="M241.45,174.74H383c-.88,1-2.07.68-3.15.68H242.25c-.49,0-1-.07-1.49-.1Z" fill="#d40016"/><path d="M142.55,113.26v61.48c-1.16.68-2.44.36-3.66.36q-67.12,0-134.25,0c-1.22,0-2.5.31-3.66-.35v-61.5c1.16-.66,2.44-.35,3.66-.35q67.13,0,134.25,0C140.11,112.9,141.39,112.58,142.55,113.26Z" fill="#d70027"/><path d="M142.55,113.26H1c.88-1,2.07-.68,3.15-.68H141.75c.49,0,1,.07,1.49.1Z" fill="#d40016"/><path d="M1,174.75H142.55l.68.6q-32.52,0-65.06.1-36.47,0-72.92,0C3.82,175.42,2.24,176,1,174.75Z" fill="#d40016"/><path d="M141.2,193.62H105.31l0-.87h3.62c9.48,0,19,0,28.46,0,1.31,0,2.79-.44,3.84.85Z" fill="#d5001f"/><path d="M242.82,193.61c.54-.28,1.07-.79,1.6-.79,11.45,0,22.9,0,34.36.78h-36Z" fill="#d5001f"/><path d="M242.8,94.38h35.89l0,.87H275.1c-9.48,0-19,0-28.46,0-1.31,0-2.79.44-3.84-.85Z" fill="#d5001f"/></g></g></svg>