<svg xmlns="http://www.w3.org/2000/svg" viewBox="0 0 383.51 287.51"><g id="Layer_2" data-name="Layer 2"><g id="Layer_1-2" data-name="Layer 1"><path d="M0,287.07V0H383.07c.7,1.29.35,2.69.35,4q0,139.39,0,278.81c0,5.12.55,4.58-4.59,4.58q-187.39,0-374.8,0C2.7,287.42,1.29,287.76,0,287.07Z" fill="#d70027"/><path d="M234.93,205.49q-18.59-13.49-37.16-27c-6.22-4.52-6.2-4.53-12.32-.08q-17.08,12.42-34.17,24.81c-1.07.77-2,1.84-3.82,2.12,3.34-10.35,6.61-20.49,9.89-30.62,1.89-5.8,3.64-11.64,5.77-17.34,1-2.66.23-4-1.89-5.49-12.56-9-25-18.1-37.53-27.17-1-.71-1.92-1.47-3.09-2.38,1.42-.83,2.67-.5,3.83-.5,15.33,0,30.66-.1,46,0,3.06,0,4.51-.74,5.48-3.86,4.5-14.48,9.31-28.87,14-43.3.39-1.17.8-2.33,1.28-3.72,1.46.92,1.49,2.36,1.88,3.55,4.76,14.54,9.58,29.05,14.13,43.65.93,3,2.28,3.72,5.24,3.69,15.33-.16,30.66-.08,46-.08h3.87c-.51,1.54-1.61,1.94-2.45,2.55-12.49,9.09-24.91,18.27-37.54,27.16-2.82,2-3.1,3.66-2.08,6.7,5.22,15.54,10.21,31.16,15.28,46.75Z" fill="#fed944"/></g></g></svg>